<svg width="1200" height="630" viewBox="0 0 1200 630" fill="none" xmlns="http://www.w3.org/2000/svg">
  <rect width="1200" height="630" fill="#F5F3FF"/>
  <rect x="40" y="40" width="1120" height="550" rx="36" fill="url(#paint0_linear_31_10)"/>
  <rect x="94" y="94" width="1012" height="442" rx="28" fill="rgba(255,255,255,0.95)"/>
  <rect x="140" y="142" width="168" height="44" rx="22" fill="#EDE9FE"/>
  <text x="175" y="171" fill="#6D28D9" font-family="Arial, sans-serif" font-size="20" font-weight="700" letter-spacing="0.12em">CITIES GAME</text>
  <text x="140" y="260" fill="#1E1B4B" font-family="Arial, sans-serif" font-size="68" font-weight="700">Игра в города</text>
  <text x="140" y="330" fill="#4C1D95" font-family="Arial, sans-serif" font-size="68" font-weight="700">на время</text>
  <text x="140" y="394" fill="#5B21B6" font-family="Arial, sans-serif" font-size="28" font-weight="400">Таймер, уровни сложности, статистика раундов</text>
  <text x="140" y="434" fill="#5B21B6" font-family="Arial, sans-serif" font-size="28" font-weight="400">и адаптивный интерфейс для desktop и mobile.</text>
  <rect x="760" y="148" width="274" height="312" rx="32" fill="#F8FAFC"/>
  <rect x="792" y="184" width="210" height="52" rx="18" fill="#8B5CF6"/>
  <text x="836" y="218" fill="white" font-family="Arial, sans-serif" font-size="24" font-weight="700">Ваш ход</text>
  <rect x="792" y="262" width="176" height="24" rx="12" fill="#EDE9FE"/>
  <rect x="792" y="306" width="122" height="24" rx="12" fill="#DDD6FE"/>
  <rect x="792" y="350" width="160" height="24" rx="12" fill="#C4B5FD"/>
  <rect x="792" y="404" width="160" height="20" rx="10" fill="#F59E0B"/>
  <circle cx="1007" cy="210" r="64" fill="#F97316"/>
  <text x="975" y="222" fill="white" font-family="Arial, sans-serif" font-size="48" font-weight="700">+</text>
  <defs>
    <linearGradient id="paint0_linear_31_10" x1="64" y1="60" x2="1100" y2="570" gradientUnits="userSpaceOnUse">
      <stop stop-color="#C4B5FD"/>
      <stop offset="0.48" stop-color="#8B5CF6"/>
      <stop offset="1" stop-color="#4C1D95"/>
    </linearGradient>
  </defs>
</svg>
